<svg width="900.0" height="1336.3592008768392" viewBox="0 0 900.0 1336.3592008768392" class="keymap" xmlns="http://www.w3.org/2000/svg" xmlns:xlink="http://www.w3.org/1999/xlink">
<style>/* inherit to force styles through use tags*/
svg path {
    fill: inherit;
}
/* font and background color specifications */
svg.keymap {
    font-family: SFMono-Regular,Consolas,Liberation Mono,Menlo,monospace;
    font-size: 14px;
    font-kerning: normal;
    text-rendering: optimizeLegibility;
    fill: #24292e;
}

/* default key styling */
rect.key {
    fill: #f6f8fa;
    stroke: #c9cccf;
    stroke-width: 1;
}

/* default key side styling, only used is draw_key_sides is set */
rect.side {
    filter: brightness(90%);
}

/* color accent for combo boxes */
rect.combo {
    fill: #cdf;
}

/* color accent for held keys */
rect.held, rect.combo.held {
    fill: #fdd;
}

/* color accent for ghost (optional) keys */
rect.ghost, rect.combo.ghost {
    stroke-dasharray: 4, 4;
    stroke-width: 2;
}

text {
    text-anchor: middle;
    dominant-baseline: middle;
}

/* styling for layer labels */
text.label {
    font-weight: bold;
    text-anchor: start;
    stroke: white;
    stroke-width: 2;
    paint-order: stroke;
}

/* styling for combo tap, and key hold/shifted label text */
text.combo, text.hold, text.shifted {
    font-size: 11px;
}

text.hold {
    text-anchor: middle;
    dominant-baseline: auto;
}

text.shifted {
    text-anchor: middle;
    dominant-baseline: hanging;
}

/* styling for hold/shifted label text in combo box */
text.combo.hold, text.combo.shifted {
    font-size: 8px;
}

/* lighter symbol for transparent keys */
text.trans {
    fill: #7b7e81;
}

/* styling for combo dendrons */
path.combo {
    stroke-width: 1;
    stroke: gray;
    fill: none;
}

/* Start Tabler Icons Cleanup */
/* cannot use height/width with glyphs */
.icon-tabler > path {
    fill: inherit;
    stroke: inherit;
}
/* hide tabler's default box */
.icon-tabler > path[stroke="none"][fill="none"] {
    visibility: collapse;
}
/* End Tabler Icons Cleanup */
</style>
<g class="layer-BEAKL">
<text x="30.0" y="28.0" class="label">BEAKL:</text>
<g class="key keypos-0">
<rect rx="6" ry="6" x="32" y="367" width="52" height="52" class="key"/>
<text x="58" y="393" class="key tap">↹</text>
</g>
<g class="key keypos-1">
<rect rx="6" ry="6" x="88" y="367" width="52" height="52" class="key"/>
<text x="114" y="393" class="key tap">Q</text>
</g>
<g class="key keypos-2">
<rect rx="6" ry="6" x="144" y="353" width="52" height="52" class="key"/>
<text x="170" y="379" class="key tap">Y</text>
</g>
<g class="key keypos-3">
<rect rx="6" ry="6" x="200" y="346" width="52" height="52" class="key"/>
<text x="226" y="372" class="key tap">O</text>
</g>
<g class="key keypos-4">
<rect rx="6" ry="6" x="256" y="353" width="52" height="52" class="key"/>
<text x="282" y="379" class="key tap">U</text>
</g>
<g class="key keypos-5">
<rect rx="6" ry="6" x="312" y="360" width="52" height="52" class="key"/>
<text x="338" y="386" class="key tap">X</text>
</g>
<g class="key keypos-6">
<rect rx="6" ry="6" x="536" y="360" width="52" height="52" class="key"/>
<text x="562" y="386" class="key tap">G</text>
</g>
<g class="key keypos-7">
<rect rx="6" ry="6" x="592" y="353" width="52" height="52" class="key"/>
<text x="618" y="379" class="key tap">C</text>
</g>
<g class="key keypos-8">
<rect rx="6" ry="6" x="648" y="346" width="52" height="52" class="key"/>
<text x="674" y="372" class="key tap">M</text>
</g>
<g class="key keypos-9">
<rect rx="6" ry="6" x="704" y="353" width="52" height="52" class="key"/>
<text x="730" y="379" class="key tap">N</text>
</g>
<g class="key keypos-10">
<rect rx="6" ry="6" x="760" y="367" width="52" height="52" class="key"/>
<text x="786" y="393" class="key tap">Z</text>
</g>
<g class="key keypos-11">
<rect rx="6" ry="6" x="816" y="367" width="52" height="52" class="key"/>
<text x="842" y="393" class="key tap">⌫</text>
</g>
<g class="key keypos-12">
<rect rx="6" ry="6" x="32" y="423" width="52" height="52" class="key"/>
<text x="58" y="449" class="key tap">⌫</text>
</g>
<g class="key keypos-13">
<rect rx="6" ry="6" x="88" y="423" width="52" height="52" class="key"/>
<text x="114" y="449" class="key tap">H</text>
</g>
<g class="key keypos-14">
<rect rx="6" ry="6" x="144" y="409" width="52" height="52" class="key"/>
<text x="170" y="435" class="key tap">I</text>
</g>
<g class="key keypos-15">
<rect rx="6" ry="6" x="200" y="402" width="52" height="52" class="key"/>
<text x="226" y="428" class="key tap">E</text>
</g>
<g class="key keypos-16">
<rect rx="6" ry="6" x="256" y="409" width="52" height="52" class="key"/>
<text x="282" y="435" class="key tap">A</text>
</g>
<g class="key keypos-17">
<rect rx="6" ry="6" x="312" y="416" width="52" height="52" class="key"/>
<text x="338" y="442" class="key tap">.`</text>
</g>
<g class="key keypos-18">
<rect rx="6" ry="6" x="536" y="416" width="52" height="52" class="key"/>
<text x="562" y="442" class="key tap">D</text>
</g>
<g class="key keypos-19">
<rect rx="6" ry="6" x="592" y="409" width="52" height="52" class="key"/>
<text x="618" y="435" class="key tap">S</text>
</g>
<g class="key keypos-20">
<rect rx="6" ry="6" x="648" y="402" width="52" height="52" class="key"/>
<text x="674" y="428" class="key tap">T</text>
</g>
<g class="key keypos-21">
<rect rx="6" ry="6" x="704" y="409" width="52" height="52" class="key"/>
<text x="730" y="435" class="key tap">R</text>
</g>
<g class="key keypos-22">
<rect rx="6" ry="6" x="760" y="423" width="52" height="52" class="key"/>
<text x="786" y="449" class="key tap">P</text>
</g>
<g class="key keypos-23">
<rect rx="6" ry="6" x="816" y="423" width="52" height="52" class="key"/>
<text x="842" y="449" class="key tap">⏎</text>
</g>
<g class="key keypos-24">
<rect rx="6" ry="6" x="32" y="479" width="52" height="52" class="key"/>
<text x="58" y="505" class="key tap">Ctrl</text>
</g>
<g class="key keypos-25">
<rect rx="6" ry="6" x="88" y="479" width="52" height="52" class="key"/>
<text x="114" y="505" class="key tap">J</text>
</g>
<g class="key keypos-26">
<rect rx="6" ry="6" x="144" y="465" width="52" height="52" class="key"/>
<text x="170" y="491" class="key tap">&quot;!</text>
</g>
<g class="key keypos-27">
<rect rx="6" ry="6" x="200" y="458" width="52" height="52" class="key"/>
<text x="226" y="484" class="key tap">,?</text>
</g>
<g class="key keypos-28">
<rect rx="6" ry="6" x="256" y="465" width="52" height="52" class="key"/>
<text x="282" y="491" class="key tap">K</text>
</g>
<g class="key keypos-29">
<rect rx="6" ry="6" x="312" y="472" width="52" height="52" class="key"/>
<text x="338" y="498" class="key tap">&#x27;~</text>
</g>
<g class="key keypos-30">
<rect rx="6" ry="6" x="536" y="472" width="52" height="52" class="key"/>
<text x="562" y="498" class="key tap">W</text>
</g>
<g class="key keypos-31">
<rect rx="6" ry="6" x="592" y="465" width="52" height="52" class="key"/>
<text x="618" y="491" class="key tap">F</text>
</g>
<g class="key keypos-32">
<rect rx="6" ry="6" x="648" y="458" width="52" height="52" class="key"/>
<text x="674" y="484" class="key tap">L</text>
</g>
<g class="key keypos-33">
<rect rx="6" ry="6" x="704" y="465" width="52" height="52" class="key"/>
<text x="730" y="491" class="key tap">B</text>
</g>
<g class="key keypos-34">
<rect rx="6" ry="6" x="760" y="479" width="52" height="52" class="key"/>
<text x="786" y="505" class="key tap">V</text>
</g>
<g class="key keypos-35">
<rect rx="6" ry="6" x="816" y="479" width="52" height="52" class="key"/>
<text x="842" y="505" class="key tap">Esc</text>
</g>
<g class="key keypos-36">
<rect rx="6" ry="6" x="228" y="523" width="52" height="52" class="key"/>
<text x="254" y="549" class="key tap">Gui</text>
</g>
<g transform="rotate(15.0, 316, 557)" class="key keypos-37">
<rect rx="6" ry="6" x="290" y="531" width="52" height="52" class="key"/>
<text x="316" y="557" class="key tap">NUMBER</text>
</g>
<g transform="rotate(30.0, 381, 569)" class="key keypos-38">
<rect rx="6" ry="6" x="355" y="529" width="52" height="80" class="key"/>
<text x="381" y="569" class="key tap">␣</text>
</g>
<g transform="rotate(-30.0, 519, 569)" class="key keypos-39">
<rect rx="6" ry="6" x="493" y="529" width="52" height="80" class="key"/>
<text x="519" y="569" class="key tap">Shift</text>
</g>
<g transform="rotate(-15.0, 584, 557)" class="key keypos-40">
<rect rx="6" ry="6" x="558" y="531" width="52" height="52" class="key"/>
<text x="584" y="557" class="key tap">SYMBOL</text>
</g>
<g class="key keypos-41">
<rect rx="6" ry="6" x="620" y="523" width="52" height="52" class="key"/>
<text x="646" y="549" class="key tap">Alt</text>
</g>
<g class="combo combopos-0">
<rect rx="6" ry="6" x="100" y="408" width="28" height="26" class="combo"/>
<text x="114" y="421" class="combo tap">!</text>
</g>
<g class="combo combopos-1">
<rect rx="6" ry="6" x="156" y="394" width="28" height="26" class="combo"/>
<text x="170" y="407" class="combo tap">@</text>
</g>
<g class="combo combopos-2">
<rect rx="6" ry="6" x="212" y="387" width="28" height="26" class="combo"/>
<text x="226" y="400" class="combo tap">#</text>
</g>
<g class="combo combopos-3">
<rect rx="6" ry="6" x="268" y="394" width="28" height="26" class="combo"/>
<text x="282" y="407" class="combo tap">$</text>
</g>
<g class="combo combopos-4">
<rect rx="6" ry="6" x="324" y="401" width="28" height="26" class="combo"/>
<text x="338" y="414" class="combo tap">%</text>
</g>
<g class="combo combopos-5">
<rect rx="6" ry="6" x="100" y="464" width="28" height="26" class="combo"/>
<text x="114" y="477" class="combo tap">^</text>
</g>
<g class="combo combopos-6">
<rect rx="6" ry="6" x="156" y="450" width="28" height="26" class="combo"/>
<text x="170" y="463" class="combo tap">&amp;</text>
</g>
<g class="combo combopos-7">
<rect rx="6" ry="6" x="212" y="443" width="28" height="26" class="combo"/>
<text x="226" y="456" class="combo tap">*</text>
</g>
<g class="combo combopos-8">
<rect rx="6" ry="6" x="268" y="450" width="28" height="26" class="combo"/>
<text x="282" y="463" class="combo tap">&lt;</text>
</g>
<g class="combo combopos-9">
<rect rx="6" ry="6" x="324" y="457" width="28" height="26" class="combo"/>
<text x="338" y="470" class="combo tap">&gt;</text>
</g>
<g class="combo combopos-10">
<path d="M226,118 h-50 a6.0,6.0 0 0 0 -6.0,6.0 v293" class="combo"/>
<path d="M226,118 h50 a6.0,6.0 0 0 1 6.0,6.0 v293" class="combo"/>
<rect rx="6" ry="6" x="212" y="105" width="28" height="26" class="combo"/>
<text x="226" y="118" class="combo tap">↹</text>
</g>
<g class="combo combopos-11">
<path d="M674,118 h-50 a6.0,6.0 0 0 0 -6.0,6.0 v293" class="combo"/>
<path d="M674,118 h50 a6.0,6.0 0 0 1 6.0,6.0 v293" class="combo"/>
<rect rx="6" ry="6" x="660" y="105" width="28" height="26" class="combo"/>
<text x="674" y="118" class="combo tap">⌫</text>
</g>
<g class="combo combopos-12">
<path d="M450,406 h-162 a6.0,6.0 0 0 0 -6.0,6.0 v4" class="combo"/>
<path d="M450,406 h162 a6.0,6.0 0 0 1 6.0,6.0 v4" class="combo"/>
<rect rx="6" ry="6" x="436" y="393" width="28" height="26" class="combo"/>
<text x="450" y="406" class="combo tap">
<tspan x="450.0" dy="-0.6em">Caps</tspan><tspan x="450.0" dy="1.2em">Wrd</tspan>
</text>
</g>
<g class="combo combopos-13">
<rect rx="6" ry="6" x="296" y="426" width="28" height="26" class="combo"/>
<text x="310" y="439" class="combo tap">!</text>
</g>
<g class="combo combopos-14">
<rect rx="6" ry="6" x="576" y="426" width="28" height="26" class="combo"/>
<text x="590" y="439" class="combo tap">?</text>
</g>
<g class="combo combopos-15">
<rect rx="6" ry="6" x="604" y="394" width="28" height="26" class="combo"/>
<text x="618" y="407" class="combo tap">-</text>
</g>
<g class="combo combopos-16">
<rect rx="6" ry="6" x="660" y="387" width="28" height="26" class="combo"/>
<text x="674" y="400" class="combo tap">=</text>
</g>
<g class="combo combopos-17">
<rect rx="6" ry="6" x="716" y="394" width="28" height="26" class="combo"/>
<text x="730" y="407" class="combo tap">;</text>
</g>
<g class="combo combopos-18">
<rect rx="6" ry="6" x="604" y="450" width="28" height="26" class="combo"/>
<text x="618" y="463" class="combo tap">[</text>
</g>
<g class="combo combopos-19">
<rect rx="6" ry="6" x="660" y="443" width="28" height="26" class="combo"/>
<text x="674" y="456" class="combo tap">]</text>
</g>
<g class="combo combopos-20">
<rect rx="6" ry="6" x="716" y="450" width="28" height="26" class="combo"/>
<text x="730" y="463" class="combo tap">\</text>
</g>
<g class="combo combopos-21">
<rect rx="6" ry="6" x="548" y="457" width="28" height="26" class="combo"/>
<text x="562" y="470" class="combo tap">()</text>
</g>
<g class="combo combopos-22">
<rect rx="6" ry="6" x="576" y="370" width="28" height="26" class="combo"/>
<text x="590" y="383" class="combo tap">⏯</text>
</g>
</g>
<g class="layer-NUMBER">
<text x="30.0" y="647.0530669589464" class="label">NUMBER:</text>
<g class="key keypos-0">
<rect rx="6" ry="6" x="32" y="698" width="52" height="52" class="key"/>
<text x="58" y="724" class="key tap">↹</text>
</g>
<g class="key keypos-1">
<rect rx="6" ry="6" x="88" y="698" width="52" height="52" class="key"/>
<text x="114" y="724" class="key tap">1</text>
</g>
<g class="key keypos-2">
<rect rx="6" ry="6" x="144" y="684" width="52" height="52" class="key"/>
<text x="170" y="710" class="key tap">2</text>
</g>
<g class="key keypos-3">
<rect rx="6" ry="6" x="200" y="677" width="52" height="52" class="key"/>
<text x="226" y="703" class="key tap">3</text>
</g>
<g class="key keypos-4">
<rect rx="6" ry="6" x="256" y="684" width="52" height="52" class="key"/>
<text x="282" y="710" class="key tap">4</text>
</g>
<g class="key keypos-5">
<rect rx="6" ry="6" x="312" y="691" width="52" height="52" class="key"/>
<text x="338" y="717" class="key tap">5</text>
</g>
<g class="key keypos-6">
<rect rx="6" ry="6" x="536" y="691" width="52" height="52" class="key"/>
<text x="562" y="717" class="key tap">6</text>
</g>
<g class="key keypos-7">
<rect rx="6" ry="6" x="592" y="684" width="52" height="52" class="key"/>
<text x="618" y="710" class="key tap">7</text>
</g>
<g class="key keypos-8">
<rect rx="6" ry="6" x="648" y="677" width="52" height="52" class="key"/>
<text x="674" y="703" class="key tap">8</text>
</g>
<g class="key keypos-9">
<rect rx="6" ry="6" x="704" y="684" width="52" height="52" class="key"/>
<text x="730" y="710" class="key tap">9</text>
</g>
<g class="key keypos-10">
<rect rx="6" ry="6" x="760" y="698" width="52" height="52" class="key"/>
<text x="786" y="724" class="key tap">0</text>
</g>
<g class="key keypos-11">
<rect rx="6" ry="6" x="816" y="698" width="52" height="52" class="key"/>
<text x="842" y="724" class="key tap">⌫</text>
</g>
<g class="key trans keypos-12">
<rect rx="6" ry="6" x="32" y="754" width="52" height="52" class="key trans"/>
<text x="58" y="780" class="key trans tap">▽</text>
</g>
<g class="key keypos-13">
<rect rx="6" ry="6" x="88" y="754" width="52" height="52" class="key"/>
<text x="114" y="780" class="key tap">6</text>
</g>
<g class="key keypos-14">
<rect rx="6" ry="6" x="144" y="740" width="52" height="52" class="key"/>
<text x="170" y="766" class="key tap">7</text>
</g>
<g class="key keypos-15">
<rect rx="6" ry="6" x="200" y="733" width="52" height="52" class="key"/>
<text x="226" y="759" class="key tap">8</text>
</g>
<g class="key keypos-16">
<rect rx="6" ry="6" x="256" y="740" width="52" height="52" class="key"/>
<text x="282" y="766" class="key tap">9</text>
</g>
<g class="key keypos-17">
<rect rx="6" ry="6" x="312" y="747" width="52" height="52" class="key"/>
<text x="338" y="773" class="key tap">0</text>
</g>
<g class="key keypos-18">
<rect rx="6" ry="6" x="536" y="747" width="52" height="52" class="key"/>
<text x="562" y="773" class="key tap">←</text>
</g>
<g class="key keypos-19">
<rect rx="6" ry="6" x="592" y="740" width="52" height="52" class="key"/>
<text x="618" y="766" class="key tap">↓</text>
</g>
<g class="key keypos-20">
<rect rx="6" ry="6" x="648" y="733" width="52" height="52" class="key"/>
<text x="674" y="759" class="key tap">↑</text>
</g>
<g class="key keypos-21">
<rect rx="6" ry="6" x="704" y="740" width="52" height="52" class="key"/>
<text x="730" y="766" class="key tap">→</text>
</g>
<g class="key trans keypos-22">
<rect rx="6" ry="6" x="760" y="754" width="52" height="52" class="key trans"/>
<text x="786" y="780" class="key trans tap">▽</text>
</g>
<g class="key keypos-23">
<rect rx="6" ry="6" x="816" y="754" width="52" height="52" class="key"/>
<text x="842" y="780" class="key tap">⏎</text>
</g>
<g class="key keypos-24">
<rect rx="6" ry="6" x="32" y="810" width="52" height="52" class="key"/>
<text x="58" y="836" class="key tap">Ctrl</text>
</g>
<g class="key trans keypos-25">
<rect rx="6" ry="6" x="88" y="810" width="52" height="52" class="key trans"/>
<text x="114" y="836" class="key trans tap">▽</text>
</g>
<g class="key trans keypos-26">
<rect rx="6" ry="6" x="144" y="796" width="52" height="52" class="key trans"/>
<text x="170" y="822" class="key trans tap">▽</text>
</g>
<g class="key trans keypos-27">
<rect rx="6" ry="6" x="200" y="789" width="52" height="52" class="key trans"/>
<text x="226" y="815" class="key trans tap">▽</text>
</g>
<g class="key trans keypos-28">
<rect rx="6" ry="6" x="256" y="796" width="52" height="52" class="key trans"/>
<text x="282" y="822" class="key trans tap">▽</text>
</g>
<g class="key trans keypos-29">
<rect rx="6" ry="6" x="312" y="803" width="52" height="52" class="key trans"/>
<text x="338" y="829" class="key trans tap">▽</text>
</g>
<g class="key trans keypos-30">
<rect rx="6" ry="6" x="536" y="803" width="52" height="52" class="key trans"/>
<text x="562" y="829" class="key trans tap">▽</text>
</g>
<g class="key trans keypos-31">
<rect rx="6" ry="6" x="592" y="796" width="52" height="52" class="key trans"/>
<text x="618" y="822" class="key trans tap">▽</text>
</g>
<g class="key trans keypos-32">
<rect rx="6" ry="6" x="648" y="789" width="52" height="52" class="key trans"/>
<text x="674" y="815" class="key trans tap">▽</text>
</g>
<g class="key trans keypos-33">
<rect rx="6" ry="6" x="704" y="796" width="52" height="52" class="key trans"/>
<text x="730" y="822" class="key trans tap">▽</text>
</g>
<g class="key trans keypos-34">
<rect rx="6" ry="6" x="760" y="810" width="52" height="52" class="key trans"/>
<text x="786" y="836" class="key trans tap">▽</text>
</g>
<g class="key trans keypos-35">
<rect rx="6" ry="6" x="816" y="810" width="52" height="52" class="key trans"/>
<text x="842" y="836" class="key trans tap">▽</text>
</g>
<g class="key keypos-36">
<rect rx="6" ry="6" x="228" y="854" width="52" height="52" class="key"/>
<text x="254" y="880" class="key tap">Gui</text>
</g>
<g transform="rotate(15.0, 316, 888)" class="key held keypos-37">
<rect rx="6" ry="6" x="290" y="862" width="52" height="52" class="key held"/>
</g>
<g transform="rotate(30.0, 381, 899)" class="key keypos-38">
<rect rx="6" ry="6" x="355" y="859" width="52" height="80" class="key"/>
<text x="381" y="899" class="key tap">␣</text>
</g>
<g transform="rotate(-30.0, 519, 899)" class="key keypos-39">
<rect rx="6" ry="6" x="493" y="859" width="52" height="80" class="key"/>
<text x="519" y="899" class="key tap">Shift</text>
</g>
<g transform="rotate(-15.0, 584, 888)" class="key trans keypos-40">
<rect rx="6" ry="6" x="558" y="862" width="52" height="52" class="key trans"/>
<text x="584" y="888" class="key trans tap">▽</text>
</g>
<g class="key keypos-41">
<rect rx="6" ry="6" x="620" y="854" width="52" height="52" class="key"/>
<text x="646" y="880" class="key tap">Alt</text>
</g>
<g class="combo combopos-0">
<rect rx="6" ry="6" x="604" y="725" width="28" height="26" class="combo"/>
<text x="618" y="738" class="combo tap">-</text>
</g>
<g class="combo combopos-1">
<rect rx="6" ry="6" x="660" y="718" width="28" height="26" class="combo"/>
<text x="674" y="731" class="combo tap">=</text>
</g>
<g class="combo combopos-2">
<rect rx="6" ry="6" x="716" y="725" width="28" height="26" class="combo"/>
<text x="730" y="738" class="combo tap">;</text>
</g>
<g class="combo combopos-3">
<rect rx="6" ry="6" x="604" y="781" width="28" height="26" class="combo"/>
<text x="618" y="794" class="combo tap">[</text>
</g>
<g class="combo combopos-4">
<rect rx="6" ry="6" x="660" y="774" width="28" height="26" class="combo"/>
<text x="674" y="787" class="combo tap">]</text>
</g>
<g class="combo combopos-5">
<rect rx="6" ry="6" x="716" y="781" width="28" height="26" class="combo"/>
<text x="730" y="794" class="combo tap">\</text>
</g>
<g class="combo combopos-6">
<rect rx="6" ry="6" x="548" y="788" width="28" height="26" class="combo"/>
<text x="562" y="801" class="combo tap">()</text>
</g>
<g class="combo combopos-7">
<rect rx="6" ry="6" x="576" y="701" width="28" height="26" class="combo"/>
<text x="590" y="714" class="combo tap">⏯</text>
</g>
</g>
<g class="layer-SYMBOL">
<text x="30.0" y="977.7061339178928" class="label">SYMBOL:</text>
<g class="key keypos-0">
<rect rx="6" ry="6" x="32" y="1029" width="52" height="52" class="key"/>
<text x="58" y="1055" class="key tap">↹</text>
</g>
<g class="key keypos-1">
<rect rx="6" ry="6" x="88" y="1029" width="52" height="52" class="key"/>
<text x="114" y="1055" class="key tap">!</text>
</g>
<g class="key keypos-2">
<rect rx="6" ry="6" x="144" y="1015" width="52" height="52" class="key"/>
<text x="170" y="1041" class="key tap">@</text>
</g>
<g class="key keypos-3">
<rect rx="6" ry="6" x="200" y="1008" width="52" height="52" class="key"/>
<text x="226" y="1034" class="key tap">#</text>
</g>
<g class="key keypos-4">
<rect rx="6" ry="6" x="256" y="1015" width="52" height="52" class="key"/>
<text x="282" y="1041" class="key tap">$</text>
</g>
<g class="key keypos-5">
<rect rx="6" ry="6" x="312" y="1022" width="52" height="52" class="key"/>
<text x="338" y="1048" class="key tap">%</text>
</g>
<g class="key keypos-6">
<rect rx="6" ry="6" x="536" y="1022" width="52" height="52" class="key"/>
<text x="562" y="1048" class="key tap">^</text>
</g>
<g class="key keypos-7">
<rect rx="6" ry="6" x="592" y="1015" width="52" height="52" class="key"/>
<text x="618" y="1041" class="key tap">&amp;</text>
</g>
<g class="key keypos-8">
<rect rx="6" ry="6" x="648" y="1008" width="52" height="52" class="key"/>
<text x="674" y="1034" class="key tap">*</text>
</g>
<g class="key keypos-9">
<rect rx="6" ry="6" x="704" y="1015" width="52" height="52" class="key"/>
<text x="730" y="1041" class="key tap">(</text>
</g>
<g class="key keypos-10">
<rect rx="6" ry="6" x="760" y="1029" width="52" height="52" class="key"/>
<text x="786" y="1055" class="key tap">)</text>
</g>
<g class="key keypos-11">
<rect rx="6" ry="6" x="816" y="1029" width="52" height="52" class="key"/>
<text x="842" y="1055" class="key tap">⌫</text>
</g>
<g class="key keypos-12">
<rect rx="6" ry="6" x="32" y="1085" width="52" height="52" class="key"/>
<text x="58" y="1111" class="key tap">⌫</text>
</g>
<g class="key trans keypos-13">
<rect rx="6" ry="6" x="88" y="1085" width="52" height="52" class="key trans"/>
<text x="114" y="1111" class="key trans tap">▽</text>
</g>
<g class="key trans keypos-14">
<rect rx="6" ry="6" x="144" y="1071" width="52" height="52" class="key trans"/>
<text x="170" y="1097" class="key trans tap">▽</text>
</g>
<g class="key trans keypos-15">
<rect rx="6" ry="6" x="200" y="1064" width="52" height="52" class="key trans"/>
<text x="226" y="1090" class="key trans tap">▽</text>
</g>
<g class="key trans keypos-16">
<rect rx="6" ry="6" x="256" y="1071" width="52" height="52" class="key trans"/>
<text x="282" y="1097" class="key trans tap">▽</text>
</g>
<g class="key trans keypos-17">
<rect rx="6" ry="6" x="312" y="1078" width="52" height="52" class="key trans"/>
<text x="338" y="1104" class="key trans tap">▽</text>
</g>
<g class="key keypos-18">
<rect rx="6" ry="6" x="536" y="1078" width="52" height="52" class="key"/>
<text x="562" y="1104" class="key tap">-</text>
</g>
<g class="key keypos-19">
<rect rx="6" ry="6" x="592" y="1071" width="52" height="52" class="key"/>
<text x="618" y="1097" class="key tap">=</text>
</g>
<g class="key keypos-20">
<rect rx="6" ry="6" x="648" y="1064" width="52" height="52" class="key"/>
<text x="674" y="1090" class="key tap">[</text>
</g>
<g class="key keypos-21">
<rect rx="6" ry="6" x="704" y="1071" width="52" height="52" class="key"/>
<text x="730" y="1097" class="key tap">]</text>
</g>
<g class="key keypos-22">
<rect rx="6" ry="6" x="760" y="1085" width="52" height="52" class="key"/>
<text x="786" y="1111" class="key tap">\</text>
</g>
<g class="key keypos-23">
<rect rx="6" ry="6" x="816" y="1085" width="52" height="52" class="key"/>
<text x="842" y="1111" class="key tap">`</text>
</g>
<g class="key keypos-24">
<rect rx="6" ry="6" x="32" y="1141" width="52" height="52" class="key"/>
<text x="58" y="1167" class="key tap">Ctrl</text>
</g>
<g class="key trans keypos-25">
<rect rx="6" ry="6" x="88" y="1141" width="52" height="52" class="key trans"/>
<text x="114" y="1167" class="key trans tap">▽</text>
</g>
<g class="key trans keypos-26">
<rect rx="6" ry="6" x="144" y="1127" width="52" height="52" class="key trans"/>
<text x="170" y="1153" class="key trans tap">▽</text>
</g>
<g class="key trans keypos-27">
<rect rx="6" ry="6" x="200" y="1120" width="52" height="52" class="key trans"/>
<text x="226" y="1146" class="key trans tap">▽</text>
</g>
<g class="key trans keypos-28">
<rect rx="6" ry="6" x="256" y="1127" width="52" height="52" class="key trans"/>
<text x="282" y="1153" class="key trans tap">▽</text>
</g>
<g class="key trans keypos-29">
<rect rx="6" ry="6" x="312" y="1134" width="52" height="52" class="key trans"/>
<text x="338" y="1160" class="key trans tap">▽</text>
</g>
<g class="key keypos-30">
<rect rx="6" ry="6" x="536" y="1134" width="52" height="52" class="key"/>
<text x="562" y="1160" class="key tap">_</text>
</g>
<g class="key keypos-31">
<rect rx="6" ry="6" x="592" y="1127" width="52" height="52" class="key"/>
<text x="618" y="1153" class="key tap">+</text>
</g>
<g class="key keypos-32">
<rect rx="6" ry="6" x="648" y="1120" width="52" height="52" class="key"/>
<text x="674" y="1146" class="key tap">{</text>
</g>
<g class="key keypos-33">
<rect rx="6" ry="6" x="704" y="1127" width="52" height="52" class="key"/>
<text x="730" y="1153" class="key tap">}</text>
</g>
<g class="key keypos-34">
<rect rx="6" ry="6" x="760" y="1141" width="52" height="52" class="key"/>
<text x="786" y="1167" class="key tap">|</text>
</g>
<g class="key keypos-35">
<rect rx="6" ry="6" x="816" y="1141" width="52" height="52" class="key"/>
<text x="842" y="1167" class="key tap">~</text>
</g>
<g class="key keypos-36">
<rect rx="6" ry="6" x="228" y="1185" width="52" height="52" class="key"/>
<text x="254" y="1211" class="key tap">Gui</text>
</g>
<g transform="rotate(15.0, 316, 1219)" class="key trans keypos-37">
<rect rx="6" ry="6" x="290" y="1193" width="52" height="52" class="key trans"/>
<text x="316" y="1219" class="key trans tap">▽</text>
</g>
<g transform="rotate(30.0, 381, 1230)" class="key keypos-38">
<rect rx="6" ry="6" x="355" y="1190" width="52" height="80" class="key"/>
<text x="381" y="1230" class="key tap">␣</text>
</g>
<g transform="rotate(-30.0, 519, 1230)" class="key keypos-39">
<rect rx="6" ry="6" x="493" y="1190" width="52" height="80" class="key"/>
<text x="519" y="1230" class="key tap">Shift</text>
</g>
<g transform="rotate(-15.0, 584, 1219)" class="key held keypos-40">
<rect rx="6" ry="6" x="558" y="1193" width="52" height="52" class="key held"/>
</g>
<g class="key keypos-41">
<rect rx="6" ry="6" x="620" y="1185" width="52" height="52" class="key"/>
<text x="646" y="1211" class="key tap">Alt</text>
</g>
<g class="combo combopos-0">
<rect rx="6" ry="6" x="604" y="1056" width="28" height="26" class="combo"/>
<text x="618" y="1069" class="combo tap">-</text>
</g>
<g class="combo combopos-1">
<rect rx="6" ry="6" x="660" y="1049" width="28" height="26" class="combo"/>
<text x="674" y="1062" class="combo tap">=</text>
</g>
<g class="combo combopos-2">
<rect rx="6" ry="6" x="716" y="1056" width="28" height="26" class="combo"/>
<text x="730" y="1069" class="combo tap">;</text>
</g>
<g class="combo combopos-3">
<rect rx="6" ry="6" x="604" y="1112" width="28" height="26" class="combo"/>
<text x="618" y="1125" class="combo tap">[</text>
</g>
<g class="combo combopos-4">
<rect rx="6" ry="6" x="660" y="1105" width="28" height="26" class="combo"/>
<text x="674" y="1118" class="combo tap">]</text>
</g>
<g class="combo combopos-5">
<rect rx="6" ry="6" x="716" y="1112" width="28" height="26" class="combo"/>
<text x="730" y="1125" class="combo tap">\</text>
</g>
<g class="combo combopos-6">
<rect rx="6" ry="6" x="548" y="1119" width="28" height="26" class="combo"/>
<text x="562" y="1132" class="combo tap">()</text>
</g>
<g class="combo combopos-7">
<path d="M198,1042 l-66,10" class="combo"/>
<path d="M198,1042 l65,-1" class="combo"/>
<rect rx="6" ry="6" x="184" y="1029" width="28" height="26" class="combo"/>
<text x="198" y="1042" class="combo tap">
<tspan x="198.0" dy="-0.6em">BT</tspan><tspan x="198.0" dy="1.2em">CLR</tspan>
</text>
</g>
<g class="combo combopos-8">
<rect rx="6" ry="6" x="100" y="1070" width="28" height="26" class="combo"/>
<text x="114" y="1083" class="combo tap">
<tspan x="114.0" dy="-0.6em">BT</tspan><tspan x="114.0" dy="1.2em">1</tspan>
</text>
</g>
<g class="combo combopos-9">
<rect rx="6" ry="6" x="156" y="1056" width="28" height="26" class="combo"/>
<text x="170" y="1069" class="combo tap">
<tspan x="170.0" dy="-0.6em">BT</tspan><tspan x="170.0" dy="1.2em">2</tspan>
</text>
</g>
<g class="combo combopos-10">
<rect rx="6" ry="6" x="212" y="1049" width="28" height="26" class="combo"/>
<text x="226" y="1062" class="combo tap">
<tspan x="226.0" dy="-0.6em">BT</tspan><tspan x="226.0" dy="1.2em">3</tspan>
</text>
</g>
<g class="combo combopos-11">
<rect rx="6" ry="6" x="268" y="1056" width="28" height="26" class="combo"/>
<text x="282" y="1069" class="combo tap">
<tspan x="282.0" dy="-0.6em">BT</tspan><tspan x="282.0" dy="1.2em">4</tspan>
</text>
</g>
<g class="combo combopos-12">
<rect rx="6" ry="6" x="324" y="1063" width="28" height="26" class="combo"/>
<text x="338" y="1076" class="combo tap">
<tspan x="338.0" dy="-0.6em">BT</tspan><tspan x="338.0" dy="1.2em">5</tspan>
</text>
</g>
<g class="combo combopos-13">
<rect rx="6" ry="6" x="576" y="1031" width="28" height="26" class="combo"/>
<text x="590" y="1044" class="combo tap">⏯</text>
</g>
</g>
</svg>
