<svg width="900.0" height="1112.3592008768392" viewBox="0 0 900.0 1112.3592008768392" class="keymap" xmlns="http://www.w3.org/2000/svg" xmlns:xlink="http://www.w3.org/1999/xlink">
<style>/* inherit to force styles through use tags*/
svg path {
    fill: inherit;
}
/* font and background color specifications */
svg.keymap {
    font-family: 'Fira Mono','SF Mono', SFMono-Regular, ui-monospace, Liberation Mono, 'DejaVu Sans Mono', Menlo, Consolas, monospace;
    font-size: 16px;
    font-kerning: normal;
    text-rendering: optimizeLegibility;
    fill: #24292e;
}

/* default key styling */
rect.key {
    fill: #f6f8fa;
    stroke: #c9cccf;
    stroke-width: 1;
}

/* default key side styling, only used is draw_key_sides is set */
rect.side {
    filter: brightness(90%);
}

/* color accent for combo boxes */
rect.combo {
    fill: #cdf;
}

/* color accent for held keys */
rect.held, rect.combo.held {
    fill: #fdd;
}

/* color accent for ghost (optional) keys */
rect.ghost, rect.combo.ghost {
    stroke-dasharray: 4, 4;
    stroke-width: 2;
}

text {
    text-anchor: middle;
    dominant-baseline: middle;
}

/* styling for layer labels */
text.label {
    font-weight: bold;
    text-anchor: start;
    stroke: white;
    stroke-width: 2;
    paint-order: stroke;
}

/* styling for combo tap, and key hold/shifted label text */
text.combo, text.hold, text.shifted {
    font-size: 12px;
}

text.hold {
    text-anchor: middle;
    dominant-baseline: auto;
}

text.shifted {
    text-anchor: middle;
    dominant-baseline: hanging;
}

/* styling for hold/shifted label text in combo box */
text.combo.hold, text.combo.shifted {
    font-size: 8px;
}

/* lighter symbol for transparent keys */
text.trans {
    fill: #7b7e81;
}

/* styling for combo dendrons */
path.combo {
    stroke-width: 1;
    stroke: gray;
    fill: none;
}

g.combo.tab {
  transform: translate(16px, 0);
}
g.combo.bspc {
  transform: translate(-16px, 0);
}
g.combo.capsw {
  transform: scale(0.9, 1) translate(49px, 0);
}

/* Start Tabler Icons Cleanup */
/* cannot use height/width with glyphs */
.icon-tabler > path {
    fill: inherit;
    stroke: inherit;
}
/* hide tabler's default box */
.icon-tabler > path[stroke="none"][fill="none"] {
    visibility: collapse;
}
/* End Tabler Icons Cleanup */
</style>
<g class="layer-BEAKL">
<text x="30.0" y="28.0" class="label">BEAKL:</text>
<g class="key keypos-0">
<rect rx="6" ry="6" x="32" y="143" width="52" height="52" class="key"/>
<text x="58" y="169" class="key tap">↹</text>
</g>
<g class="key keypos-1">
<rect rx="6" ry="6" x="88" y="143" width="52" height="52" class="key"/>
<text x="114" y="169" class="key tap">Q</text>
</g>
<g class="key keypos-2">
<rect rx="6" ry="6" x="144" y="129" width="52" height="52" class="key"/>
<text x="170" y="155" class="key tap">Y</text>
</g>
<g class="key keypos-3">
<rect rx="6" ry="6" x="200" y="122" width="52" height="52" class="key"/>
<text x="226" y="148" class="key tap">O</text>
</g>
<g class="key keypos-4">
<rect rx="6" ry="6" x="256" y="129" width="52" height="52" class="key"/>
<text x="282" y="155" class="key tap">U</text>
</g>
<g class="key keypos-5">
<rect rx="6" ry="6" x="312" y="136" width="52" height="52" class="key"/>
<text x="338" y="162" class="key tap">X</text>
</g>
<g class="key keypos-6">
<rect rx="6" ry="6" x="536" y="136" width="52" height="52" class="key"/>
<text x="562" y="162" class="key tap">G</text>
</g>
<g class="key keypos-7">
<rect rx="6" ry="6" x="592" y="129" width="52" height="52" class="key"/>
<text x="618" y="155" class="key tap">C</text>
</g>
<g class="key keypos-8">
<rect rx="6" ry="6" x="648" y="122" width="52" height="52" class="key"/>
<text x="674" y="148" class="key tap">M</text>
</g>
<g class="key keypos-9">
<rect rx="6" ry="6" x="704" y="129" width="52" height="52" class="key"/>
<text x="730" y="155" class="key tap">N</text>
</g>
<g class="key keypos-10">
<rect rx="6" ry="6" x="760" y="143" width="52" height="52" class="key"/>
<text x="786" y="169" class="key tap">Z</text>
</g>
<g class="key keypos-11">
<rect rx="6" ry="6" x="816" y="143" width="52" height="52" class="key"/>
<text x="842" y="169" class="key tap">⌫</text>
</g>
<g class="key keypos-12">
<rect rx="6" ry="6" x="32" y="199" width="52" height="52" class="key"/>
<text x="58" y="225" class="key tap">⌫</text>
</g>
<g class="key keypos-13">
<rect rx="6" ry="6" x="88" y="199" width="52" height="52" class="key"/>
<text x="114" y="225" class="key tap">H</text>
</g>
<g class="key keypos-14">
<rect rx="6" ry="6" x="144" y="185" width="52" height="52" class="key"/>
<text x="170" y="211" class="key tap">I</text>
</g>
<g class="key keypos-15">
<rect rx="6" ry="6" x="200" y="178" width="52" height="52" class="key"/>
<text x="226" y="204" class="key tap">E</text>
</g>
<g class="key keypos-16">
<rect rx="6" ry="6" x="256" y="185" width="52" height="52" class="key"/>
<text x="282" y="211" class="key tap">A</text>
</g>
<g class="key keypos-17">
<rect rx="6" ry="6" x="312" y="192" width="52" height="52" class="key"/>
<text x="338" y="218" class="key tap">.`</text>
</g>
<g class="key keypos-18">
<rect rx="6" ry="6" x="536" y="192" width="52" height="52" class="key"/>
<text x="562" y="218" class="key tap">D</text>
</g>
<g class="key keypos-19">
<rect rx="6" ry="6" x="592" y="185" width="52" height="52" class="key"/>
<text x="618" y="211" class="key tap">S</text>
</g>
<g class="key keypos-20">
<rect rx="6" ry="6" x="648" y="178" width="52" height="52" class="key"/>
<text x="674" y="204" class="key tap">T</text>
</g>
<g class="key keypos-21">
<rect rx="6" ry="6" x="704" y="185" width="52" height="52" class="key"/>
<text x="730" y="211" class="key tap">R</text>
</g>
<g class="key keypos-22">
<rect rx="6" ry="6" x="760" y="199" width="52" height="52" class="key"/>
<text x="786" y="225" class="key tap">P</text>
</g>
<g class="key keypos-23">
<rect rx="6" ry="6" x="816" y="199" width="52" height="52" class="key"/>
<text x="842" y="225" class="key tap">⏎</text>
</g>
<g class="key keypos-24">
<rect rx="6" ry="6" x="32" y="255" width="52" height="52" class="key"/>
<text x="58" y="281" class="key tap">⌃</text>
</g>
<g class="key keypos-25">
<rect rx="6" ry="6" x="88" y="255" width="52" height="52" class="key"/>
<text x="114" y="281" class="key tap">J</text>
</g>
<g class="key keypos-26">
<rect rx="6" ry="6" x="144" y="241" width="52" height="52" class="key"/>
<text x="170" y="267" class="key tap">&quot;!</text>
</g>
<g class="key keypos-27">
<rect rx="6" ry="6" x="200" y="234" width="52" height="52" class="key"/>
<text x="226" y="260" class="key tap">,?</text>
</g>
<g class="key keypos-28">
<rect rx="6" ry="6" x="256" y="241" width="52" height="52" class="key"/>
<text x="282" y="267" class="key tap">K</text>
</g>
<g class="key keypos-29">
<rect rx="6" ry="6" x="312" y="248" width="52" height="52" class="key"/>
<text x="338" y="274" class="key tap">&#x27;~</text>
</g>
<g class="key keypos-30">
<rect rx="6" ry="6" x="536" y="248" width="52" height="52" class="key"/>
<text x="562" y="274" class="key tap">W</text>
</g>
<g class="key keypos-31">
<rect rx="6" ry="6" x="592" y="241" width="52" height="52" class="key"/>
<text x="618" y="267" class="key tap">F</text>
</g>
<g class="key keypos-32">
<rect rx="6" ry="6" x="648" y="234" width="52" height="52" class="key"/>
<text x="674" y="260" class="key tap">L</text>
</g>
<g class="key keypos-33">
<rect rx="6" ry="6" x="704" y="241" width="52" height="52" class="key"/>
<text x="730" y="267" class="key tap">B</text>
</g>
<g class="key keypos-34">
<rect rx="6" ry="6" x="760" y="255" width="52" height="52" class="key"/>
<text x="786" y="281" class="key tap">V</text>
</g>
<g class="key keypos-35">
<rect rx="6" ry="6" x="816" y="255" width="52" height="52" class="key"/>
<text x="842" y="281" class="key tap">⎋</text>
</g>
<g class="key keypos-36">
<rect rx="6" ry="6" x="228" y="299" width="52" height="52" class="key"/>
<text x="254" y="325" class="key tap">⌘</text>
</g>
<g transform="rotate(15.0, 316, 333)" class="key keypos-37">
<rect rx="6" ry="6" x="290" y="307" width="52" height="52" class="key"/>
<text x="316" y="333" class="key tap">NUMBER</text>
</g>
<g transform="rotate(30.0, 381, 345)" class="key keypos-38">
<rect rx="6" ry="6" x="355" y="305" width="52" height="80" class="key"/>
<text x="381" y="345" class="key tap">␣</text>
</g>
<g transform="rotate(-30.0, 519, 345)" class="key keypos-39">
<rect rx="6" ry="6" x="493" y="305" width="52" height="80" class="key"/>
<text x="519" y="345" class="key tap">⇧</text>
</g>
<g transform="rotate(-15.0, 584, 333)" class="key keypos-40">
<rect rx="6" ry="6" x="558" y="307" width="52" height="52" class="key"/>
<text x="584" y="333" class="key tap">SYMBOL</text>
</g>
<g class="key keypos-41">
<rect rx="6" ry="6" x="620" y="299" width="52" height="52" class="key"/>
<text x="646" y="325" class="key tap">⎇</text>
</g>
<g class="combo combopos-0">
<rect rx="6" ry="6" x="100" y="184" width="28" height="26" class="combo"/>
<text x="114" y="197" class="combo tap">!</text>
</g>
<g class="combo combopos-1">
<rect rx="6" ry="6" x="156" y="170" width="28" height="26" class="combo"/>
<text x="170" y="183" class="combo tap">@</text>
</g>
<g class="combo combopos-2">
<rect rx="6" ry="6" x="212" y="163" width="28" height="26" class="combo"/>
<text x="226" y="176" class="combo tap">#</text>
</g>
<g class="combo combopos-3">
<rect rx="6" ry="6" x="268" y="170" width="28" height="26" class="combo"/>
<text x="282" y="183" class="combo tap">$</text>
</g>
<g class="combo combopos-4">
<rect rx="6" ry="6" x="324" y="177" width="28" height="26" class="combo"/>
<text x="338" y="190" class="combo tap">%</text>
</g>
<g class="combo combopos-5">
<rect rx="6" ry="6" x="100" y="240" width="28" height="26" class="combo"/>
<text x="114" y="253" class="combo tap">^</text>
</g>
<g class="combo combopos-6">
<rect rx="6" ry="6" x="156" y="226" width="28" height="26" class="combo"/>
<text x="170" y="239" class="combo tap">&amp;</text>
</g>
<g class="combo combopos-7">
<rect rx="6" ry="6" x="212" y="219" width="28" height="26" class="combo"/>
<text x="226" y="232" class="combo tap">*</text>
</g>
<g class="combo combopos-8">
<rect rx="6" ry="6" x="268" y="226" width="28" height="26" class="combo"/>
<text x="282" y="239" class="combo tap">&lt;</text>
</g>
<g class="combo combopos-9">
<rect rx="6" ry="6" x="324" y="233" width="28" height="26" class="combo"/>
<text x="338" y="246" class="combo tap">&gt;</text>
</g>
<g class="combo tab combopos-10">
<path d="M226,118 h-50 a6.0,6.0 0 0 0 -6.0,6.0 v69" class="combo"/>
<path d="M226,118 h50 a6.0,6.0 0 0 1 6.0,6.0 v69" class="combo"/>
<rect rx="6" ry="6" x="212" y="105" width="28" height="26" class="combo tab"/>
<text x="226" y="118" class="combo tab tap">↹</text>
</g>
<g class="combo bspc combopos-11">
<path d="M674,118 h-50 a6.0,6.0 0 0 0 -6.0,6.0 v69" class="combo"/>
<path d="M674,118 h50 a6.0,6.0 0 0 1 6.0,6.0 v69" class="combo"/>
<rect rx="6" ry="6" x="660" y="105" width="28" height="26" class="combo bspc"/>
<text x="674" y="118" class="combo bspc tap">⌫</text>
</g>
<g class="combo capsw combopos-12">
<path d="M450,182 h-162 a6.0,6.0 0 0 0 -6.0,6.0 v4" class="combo"/>
<path d="M450,182 h162 a6.0,6.0 0 0 1 6.0,6.0 v4" class="combo"/>
<rect rx="6" ry="6" x="436" y="169" width="28" height="26" class="combo capsw"/>
<text x="450" y="182" class="combo capsw tap">
<tspan x="450.0" dy="-0.6em">Caps</tspan><tspan x="450.0" dy="1.2em">Wrd</tspan>
</text>
</g>
<g class="combo combopos-13">
<rect rx="6" ry="6" x="296" y="202" width="28" height="26" class="combo"/>
<text x="310" y="215" class="combo tap">!</text>
</g>
<g class="combo combopos-14">
<rect rx="6" ry="6" x="576" y="202" width="28" height="26" class="combo"/>
<text x="590" y="215" class="combo tap">?</text>
</g>
<g class="combo combopos-15">
<rect rx="6" ry="6" x="604" y="170" width="28" height="26" class="combo"/>
<text x="618" y="183" class="combo tap">-</text>
</g>
<g class="combo combopos-16">
<rect rx="6" ry="6" x="660" y="163" width="28" height="26" class="combo"/>
<text x="674" y="176" class="combo tap">=</text>
</g>
<g class="combo combopos-17">
<rect rx="6" ry="6" x="716" y="170" width="28" height="26" class="combo"/>
<text x="730" y="183" class="combo tap">;</text>
</g>
<g class="combo combopos-18">
<rect rx="6" ry="6" x="604" y="226" width="28" height="26" class="combo"/>
<text x="618" y="239" class="combo tap">[</text>
</g>
<g class="combo combopos-19">
<rect rx="6" ry="6" x="660" y="219" width="28" height="26" class="combo"/>
<text x="674" y="232" class="combo tap">]</text>
</g>
<g class="combo combopos-20">
<rect rx="6" ry="6" x="716" y="226" width="28" height="26" class="combo"/>
<text x="730" y="239" class="combo tap">\</text>
</g>
<g class="combo combopos-21">
<rect rx="6" ry="6" x="548" y="233" width="28" height="26" class="combo"/>
<text x="562" y="246" class="combo tap">()</text>
</g>
<g class="combo combopos-22">
<rect rx="6" ry="6" x="576" y="146" width="28" height="26" class="combo"/>
<text x="590" y="159" class="combo tap">⏯</text>
</g>
</g>
<g class="layer-NUMBER">
<text x="30.0" y="423.0530669589464" class="label">NUMBER:</text>
<g class="key keypos-0">
<rect rx="6" ry="6" x="32" y="474" width="52" height="52" class="key"/>
<text x="58" y="500" class="key tap">↹</text>
</g>
<g class="key keypos-1">
<rect rx="6" ry="6" x="88" y="474" width="52" height="52" class="key"/>
<text x="114" y="500" class="key tap">1</text>
</g>
<g class="key keypos-2">
<rect rx="6" ry="6" x="144" y="460" width="52" height="52" class="key"/>
<text x="170" y="486" class="key tap">2</text>
</g>
<g class="key keypos-3">
<rect rx="6" ry="6" x="200" y="453" width="52" height="52" class="key"/>
<text x="226" y="479" class="key tap">3</text>
</g>
<g class="key keypos-4">
<rect rx="6" ry="6" x="256" y="460" width="52" height="52" class="key"/>
<text x="282" y="486" class="key tap">4</text>
</g>
<g class="key keypos-5">
<rect rx="6" ry="6" x="312" y="467" width="52" height="52" class="key"/>
<text x="338" y="493" class="key tap">5</text>
</g>
<g class="key keypos-6">
<rect rx="6" ry="6" x="536" y="467" width="52" height="52" class="key"/>
<text x="562" y="493" class="key tap">6</text>
</g>
<g class="key keypos-7">
<rect rx="6" ry="6" x="592" y="460" width="52" height="52" class="key"/>
<text x="618" y="486" class="key tap">7</text>
</g>
<g class="key keypos-8">
<rect rx="6" ry="6" x="648" y="453" width="52" height="52" class="key"/>
<text x="674" y="479" class="key tap">8</text>
</g>
<g class="key keypos-9">
<rect rx="6" ry="6" x="704" y="460" width="52" height="52" class="key"/>
<text x="730" y="486" class="key tap">9</text>
</g>
<g class="key keypos-10">
<rect rx="6" ry="6" x="760" y="474" width="52" height="52" class="key"/>
<text x="786" y="500" class="key tap">0</text>
</g>
<g class="key keypos-11">
<rect rx="6" ry="6" x="816" y="474" width="52" height="52" class="key"/>
<text x="842" y="500" class="key tap">⌫</text>
</g>
<g class="key trans keypos-12">
<rect rx="6" ry="6" x="32" y="530" width="52" height="52" class="key trans"/>
<text x="58" y="556" class="key trans tap">▽</text>
</g>
<g class="key keypos-13">
<rect rx="6" ry="6" x="88" y="530" width="52" height="52" class="key"/>
<text x="114" y="556" class="key tap">6</text>
</g>
<g class="key keypos-14">
<rect rx="6" ry="6" x="144" y="516" width="52" height="52" class="key"/>
<text x="170" y="542" class="key tap">7</text>
</g>
<g class="key keypos-15">
<rect rx="6" ry="6" x="200" y="509" width="52" height="52" class="key"/>
<text x="226" y="535" class="key tap">8</text>
</g>
<g class="key keypos-16">
<rect rx="6" ry="6" x="256" y="516" width="52" height="52" class="key"/>
<text x="282" y="542" class="key tap">9</text>
</g>
<g class="key keypos-17">
<rect rx="6" ry="6" x="312" y="523" width="52" height="52" class="key"/>
<text x="338" y="549" class="key tap">0</text>
</g>
<g class="key keypos-18">
<rect rx="6" ry="6" x="536" y="523" width="52" height="52" class="key"/>
<text x="562" y="549" class="key tap">←</text>
</g>
<g class="key keypos-19">
<rect rx="6" ry="6" x="592" y="516" width="52" height="52" class="key"/>
<text x="618" y="542" class="key tap">↓</text>
</g>
<g class="key keypos-20">
<rect rx="6" ry="6" x="648" y="509" width="52" height="52" class="key"/>
<text x="674" y="535" class="key tap">↑</text>
</g>
<g class="key keypos-21">
<rect rx="6" ry="6" x="704" y="516" width="52" height="52" class="key"/>
<text x="730" y="542" class="key tap">→</text>
</g>
<g class="key trans keypos-22">
<rect rx="6" ry="6" x="760" y="530" width="52" height="52" class="key trans"/>
<text x="786" y="556" class="key trans tap">▽</text>
</g>
<g class="key keypos-23">
<rect rx="6" ry="6" x="816" y="530" width="52" height="52" class="key"/>
<text x="842" y="556" class="key tap">⏎</text>
</g>
<g class="key keypos-24">
<rect rx="6" ry="6" x="32" y="586" width="52" height="52" class="key"/>
<text x="58" y="612" class="key tap">⌃</text>
</g>
<g class="key trans keypos-25">
<rect rx="6" ry="6" x="88" y="586" width="52" height="52" class="key trans"/>
<text x="114" y="612" class="key trans tap">▽</text>
</g>
<g class="key trans keypos-26">
<rect rx="6" ry="6" x="144" y="572" width="52" height="52" class="key trans"/>
<text x="170" y="598" class="key trans tap">▽</text>
</g>
<g class="key trans keypos-27">
<rect rx="6" ry="6" x="200" y="565" width="52" height="52" class="key trans"/>
<text x="226" y="591" class="key trans tap">▽</text>
</g>
<g class="key trans keypos-28">
<rect rx="6" ry="6" x="256" y="572" width="52" height="52" class="key trans"/>
<text x="282" y="598" class="key trans tap">▽</text>
</g>
<g class="key trans keypos-29">
<rect rx="6" ry="6" x="312" y="579" width="52" height="52" class="key trans"/>
<text x="338" y="605" class="key trans tap">▽</text>
</g>
<g class="key trans keypos-30">
<rect rx="6" ry="6" x="536" y="579" width="52" height="52" class="key trans"/>
<text x="562" y="605" class="key trans tap">▽</text>
</g>
<g class="key trans keypos-31">
<rect rx="6" ry="6" x="592" y="572" width="52" height="52" class="key trans"/>
<text x="618" y="598" class="key trans tap">▽</text>
</g>
<g class="key trans keypos-32">
<rect rx="6" ry="6" x="648" y="565" width="52" height="52" class="key trans"/>
<text x="674" y="591" class="key trans tap">▽</text>
</g>
<g class="key trans keypos-33">
<rect rx="6" ry="6" x="704" y="572" width="52" height="52" class="key trans"/>
<text x="730" y="598" class="key trans tap">▽</text>
</g>
<g class="key trans keypos-34">
<rect rx="6" ry="6" x="760" y="586" width="52" height="52" class="key trans"/>
<text x="786" y="612" class="key trans tap">▽</text>
</g>
<g class="key trans keypos-35">
<rect rx="6" ry="6" x="816" y="586" width="52" height="52" class="key trans"/>
<text x="842" y="612" class="key trans tap">▽</text>
</g>
<g class="key keypos-36">
<rect rx="6" ry="6" x="228" y="630" width="52" height="52" class="key"/>
<text x="254" y="656" class="key tap">⌘</text>
</g>
<g transform="rotate(15.0, 316, 664)" class="key held keypos-37">
<rect rx="6" ry="6" x="290" y="638" width="52" height="52" class="key held"/>
</g>
<g transform="rotate(30.0, 381, 675)" class="key keypos-38">
<rect rx="6" ry="6" x="355" y="635" width="52" height="80" class="key"/>
<text x="381" y="675" class="key tap">␣</text>
</g>
<g transform="rotate(-30.0, 519, 675)" class="key keypos-39">
<rect rx="6" ry="6" x="493" y="635" width="52" height="80" class="key"/>
<text x="519" y="675" class="key tap">⇧</text>
</g>
<g transform="rotate(-15.0, 584, 664)" class="key trans keypos-40">
<rect rx="6" ry="6" x="558" y="638" width="52" height="52" class="key trans"/>
<text x="584" y="664" class="key trans tap">▽</text>
</g>
<g class="key keypos-41">
<rect rx="6" ry="6" x="620" y="630" width="52" height="52" class="key"/>
<text x="646" y="656" class="key tap">⎇</text>
</g>
<g class="combo combopos-0">
<rect rx="6" ry="6" x="604" y="501" width="28" height="26" class="combo"/>
<text x="618" y="514" class="combo tap">-</text>
</g>
<g class="combo combopos-1">
<rect rx="6" ry="6" x="660" y="494" width="28" height="26" class="combo"/>
<text x="674" y="507" class="combo tap">=</text>
</g>
<g class="combo combopos-2">
<rect rx="6" ry="6" x="716" y="501" width="28" height="26" class="combo"/>
<text x="730" y="514" class="combo tap">;</text>
</g>
<g class="combo combopos-3">
<rect rx="6" ry="6" x="604" y="557" width="28" height="26" class="combo"/>
<text x="618" y="570" class="combo tap">[</text>
</g>
<g class="combo combopos-4">
<rect rx="6" ry="6" x="660" y="550" width="28" height="26" class="combo"/>
<text x="674" y="563" class="combo tap">]</text>
</g>
<g class="combo combopos-5">
<rect rx="6" ry="6" x="716" y="557" width="28" height="26" class="combo"/>
<text x="730" y="570" class="combo tap">\</text>
</g>
<g class="combo combopos-6">
<rect rx="6" ry="6" x="548" y="564" width="28" height="26" class="combo"/>
<text x="562" y="577" class="combo tap">()</text>
</g>
<g class="combo combopos-7">
<rect rx="6" ry="6" x="576" y="477" width="28" height="26" class="combo"/>
<text x="590" y="490" class="combo tap">⏯</text>
</g>
</g>
<g class="layer-SYMBOL">
<text x="30.0" y="753.7061339178928" class="label">SYMBOL:</text>
<g class="key keypos-0">
<rect rx="6" ry="6" x="32" y="805" width="52" height="52" class="key"/>
<text x="58" y="831" class="key tap">↹</text>
</g>
<g class="key keypos-1">
<rect rx="6" ry="6" x="88" y="805" width="52" height="52" class="key"/>
<text x="114" y="831" class="key tap">!</text>
</g>
<g class="key keypos-2">
<rect rx="6" ry="6" x="144" y="791" width="52" height="52" class="key"/>
<text x="170" y="817" class="key tap">@</text>
</g>
<g class="key keypos-3">
<rect rx="6" ry="6" x="200" y="784" width="52" height="52" class="key"/>
<text x="226" y="810" class="key tap">#</text>
</g>
<g class="key keypos-4">
<rect rx="6" ry="6" x="256" y="791" width="52" height="52" class="key"/>
<text x="282" y="817" class="key tap">$</text>
</g>
<g class="key keypos-5">
<rect rx="6" ry="6" x="312" y="798" width="52" height="52" class="key"/>
<text x="338" y="824" class="key tap">%</text>
</g>
<g class="key keypos-6">
<rect rx="6" ry="6" x="536" y="798" width="52" height="52" class="key"/>
<text x="562" y="824" class="key tap">^</text>
</g>
<g class="key keypos-7">
<rect rx="6" ry="6" x="592" y="791" width="52" height="52" class="key"/>
<text x="618" y="817" class="key tap">&amp;</text>
</g>
<g class="key keypos-8">
<rect rx="6" ry="6" x="648" y="784" width="52" height="52" class="key"/>
<text x="674" y="810" class="key tap">*</text>
</g>
<g class="key keypos-9">
<rect rx="6" ry="6" x="704" y="791" width="52" height="52" class="key"/>
<text x="730" y="817" class="key tap">(</text>
</g>
<g class="key keypos-10">
<rect rx="6" ry="6" x="760" y="805" width="52" height="52" class="key"/>
<text x="786" y="831" class="key tap">)</text>
</g>
<g class="key keypos-11">
<rect rx="6" ry="6" x="816" y="805" width="52" height="52" class="key"/>
<text x="842" y="831" class="key tap">⌫</text>
</g>
<g class="key keypos-12">
<rect rx="6" ry="6" x="32" y="861" width="52" height="52" class="key"/>
<text x="58" y="887" class="key tap">⌫</text>
</g>
<g class="key trans keypos-13">
<rect rx="6" ry="6" x="88" y="861" width="52" height="52" class="key trans"/>
<text x="114" y="887" class="key trans tap">▽</text>
</g>
<g class="key trans keypos-14">
<rect rx="6" ry="6" x="144" y="847" width="52" height="52" class="key trans"/>
<text x="170" y="873" class="key trans tap">▽</text>
</g>
<g class="key trans keypos-15">
<rect rx="6" ry="6" x="200" y="840" width="52" height="52" class="key trans"/>
<text x="226" y="866" class="key trans tap">▽</text>
</g>
<g class="key trans keypos-16">
<rect rx="6" ry="6" x="256" y="847" width="52" height="52" class="key trans"/>
<text x="282" y="873" class="key trans tap">▽</text>
</g>
<g class="key trans keypos-17">
<rect rx="6" ry="6" x="312" y="854" width="52" height="52" class="key trans"/>
<text x="338" y="880" class="key trans tap">▽</text>
</g>
<g class="key keypos-18">
<rect rx="6" ry="6" x="536" y="854" width="52" height="52" class="key"/>
<text x="562" y="880" class="key tap">-</text>
</g>
<g class="key keypos-19">
<rect rx="6" ry="6" x="592" y="847" width="52" height="52" class="key"/>
<text x="618" y="873" class="key tap">=</text>
</g>
<g class="key keypos-20">
<rect rx="6" ry="6" x="648" y="840" width="52" height="52" class="key"/>
<text x="674" y="866" class="key tap">[</text>
</g>
<g class="key keypos-21">
<rect rx="6" ry="6" x="704" y="847" width="52" height="52" class="key"/>
<text x="730" y="873" class="key tap">]</text>
</g>
<g class="key keypos-22">
<rect rx="6" ry="6" x="760" y="861" width="52" height="52" class="key"/>
<text x="786" y="887" class="key tap">\</text>
</g>
<g class="key keypos-23">
<rect rx="6" ry="6" x="816" y="861" width="52" height="52" class="key"/>
<text x="842" y="887" class="key tap">`</text>
</g>
<g class="key keypos-24">
<rect rx="6" ry="6" x="32" y="917" width="52" height="52" class="key"/>
<text x="58" y="943" class="key tap">⌃</text>
</g>
<g class="key trans keypos-25">
<rect rx="6" ry="6" x="88" y="917" width="52" height="52" class="key trans"/>
<text x="114" y="943" class="key trans tap">▽</text>
</g>
<g class="key trans keypos-26">
<rect rx="6" ry="6" x="144" y="903" width="52" height="52" class="key trans"/>
<text x="170" y="929" class="key trans tap">▽</text>
</g>
<g class="key trans keypos-27">
<rect rx="6" ry="6" x="200" y="896" width="52" height="52" class="key trans"/>
<text x="226" y="922" class="key trans tap">▽</text>
</g>
<g class="key trans keypos-28">
<rect rx="6" ry="6" x="256" y="903" width="52" height="52" class="key trans"/>
<text x="282" y="929" class="key trans tap">▽</text>
</g>
<g class="key trans keypos-29">
<rect rx="6" ry="6" x="312" y="910" width="52" height="52" class="key trans"/>
<text x="338" y="936" class="key trans tap">▽</text>
</g>
<g class="key keypos-30">
<rect rx="6" ry="6" x="536" y="910" width="52" height="52" class="key"/>
<text x="562" y="936" class="key tap">_</text>
</g>
<g class="key keypos-31">
<rect rx="6" ry="6" x="592" y="903" width="52" height="52" class="key"/>
<text x="618" y="929" class="key tap">+</text>
</g>
<g class="key keypos-32">
<rect rx="6" ry="6" x="648" y="896" width="52" height="52" class="key"/>
<text x="674" y="922" class="key tap">{</text>
</g>
<g class="key keypos-33">
<rect rx="6" ry="6" x="704" y="903" width="52" height="52" class="key"/>
<text x="730" y="929" class="key tap">}</text>
</g>
<g class="key keypos-34">
<rect rx="6" ry="6" x="760" y="917" width="52" height="52" class="key"/>
<text x="786" y="943" class="key tap">|</text>
</g>
<g class="key keypos-35">
<rect rx="6" ry="6" x="816" y="917" width="52" height="52" class="key"/>
<text x="842" y="943" class="key tap">~</text>
</g>
<g class="key keypos-36">
<rect rx="6" ry="6" x="228" y="961" width="52" height="52" class="key"/>
<text x="254" y="987" class="key tap">⌘</text>
</g>
<g transform="rotate(15.0, 316, 995)" class="key trans keypos-37">
<rect rx="6" ry="6" x="290" y="969" width="52" height="52" class="key trans"/>
<text x="316" y="995" class="key trans tap">▽</text>
</g>
<g transform="rotate(30.0, 381, 1006)" class="key keypos-38">
<rect rx="6" ry="6" x="355" y="966" width="52" height="80" class="key"/>
<text x="381" y="1006" class="key tap">␣</text>
</g>
<g transform="rotate(-30.0, 519, 1006)" class="key keypos-39">
<rect rx="6" ry="6" x="493" y="966" width="52" height="80" class="key"/>
<text x="519" y="1006" class="key tap">⇧</text>
</g>
<g transform="rotate(-15.0, 584, 995)" class="key held keypos-40">
<rect rx="6" ry="6" x="558" y="969" width="52" height="52" class="key held"/>
</g>
<g class="key keypos-41">
<rect rx="6" ry="6" x="620" y="961" width="52" height="52" class="key"/>
<text x="646" y="987" class="key tap">⎇</text>
</g>
<g class="combo combopos-0">
<rect rx="6" ry="6" x="604" y="832" width="28" height="26" class="combo"/>
<text x="618" y="845" class="combo tap">-</text>
</g>
<g class="combo combopos-1">
<rect rx="6" ry="6" x="660" y="825" width="28" height="26" class="combo"/>
<text x="674" y="838" class="combo tap">=</text>
</g>
<g class="combo combopos-2">
<rect rx="6" ry="6" x="716" y="832" width="28" height="26" class="combo"/>
<text x="730" y="845" class="combo tap">;</text>
</g>
<g class="combo combopos-3">
<rect rx="6" ry="6" x="604" y="888" width="28" height="26" class="combo"/>
<text x="618" y="901" class="combo tap">[</text>
</g>
<g class="combo combopos-4">
<rect rx="6" ry="6" x="660" y="881" width="28" height="26" class="combo"/>
<text x="674" y="894" class="combo tap">]</text>
</g>
<g class="combo combopos-5">
<rect rx="6" ry="6" x="716" y="888" width="28" height="26" class="combo"/>
<text x="730" y="901" class="combo tap">\</text>
</g>
<g class="combo combopos-6">
<rect rx="6" ry="6" x="548" y="895" width="28" height="26" class="combo"/>
<text x="562" y="908" class="combo tap">()</text>
</g>
<g class="combo combopos-7">
<path d="M198,818 l-66,10" class="combo"/>
<path d="M198,818 l65,-1" class="combo"/>
<rect rx="6" ry="6" x="184" y="805" width="28" height="26" class="combo"/>
<text x="198" y="818" class="combo tap">
<tspan x="198.0" dy="-0.6em">BT</tspan><tspan x="198.0" dy="1.2em">CLR</tspan>
</text>
</g>
<g class="combo combopos-8">
<rect rx="6" ry="6" x="100" y="846" width="28" height="26" class="combo"/>
<text x="114" y="859" class="combo tap">
<tspan x="114.0" dy="-0.6em">BT</tspan><tspan x="114.0" dy="1.2em">1</tspan>
</text>
</g>
<g class="combo combopos-9">
<rect rx="6" ry="6" x="156" y="832" width="28" height="26" class="combo"/>
<text x="170" y="845" class="combo tap">
<tspan x="170.0" dy="-0.6em">BT</tspan><tspan x="170.0" dy="1.2em">2</tspan>
</text>
</g>
<g class="combo combopos-10">
<rect rx="6" ry="6" x="212" y="825" width="28" height="26" class="combo"/>
<text x="226" y="838" class="combo tap">
<tspan x="226.0" dy="-0.6em">BT</tspan><tspan x="226.0" dy="1.2em">3</tspan>
</text>
</g>
<g class="combo combopos-11">
<rect rx="6" ry="6" x="268" y="832" width="28" height="26" class="combo"/>
<text x="282" y="845" class="combo tap">
<tspan x="282.0" dy="-0.6em">BT</tspan><tspan x="282.0" dy="1.2em">4</tspan>
</text>
</g>
<g class="combo combopos-12">
<rect rx="6" ry="6" x="324" y="839" width="28" height="26" class="combo"/>
<text x="338" y="852" class="combo tap">
<tspan x="338.0" dy="-0.6em">BT</tspan><tspan x="338.0" dy="1.2em">5</tspan>
</text>
</g>
<g class="combo combopos-13">
<rect rx="6" ry="6" x="576" y="807" width="28" height="26" class="combo"/>
<text x="590" y="820" class="combo tap">⏯</text>
</g>
</g>
</svg>
