<svg width="900.0" height="1047.959200876839" viewBox="0 0 900.0 1047.959200876839" class="keymap" xmlns="http://www.w3.org/2000/svg" xmlns:xlink="http://www.w3.org/1999/xlink">
<style>/* inherit to force styles through use tags*/
svg path {
    fill: inherit;
}
/* font and background color specifications */
svg.keymap {
    font-family: SFMono-Regular,Consolas,Liberation Mono,Menlo,monospace;
    font-size: 14px;
    font-kerning: normal;
    text-rendering: optimizeLegibility;
    fill: #24292e;
}

/* default key styling */
rect.key {
    fill: #f6f8fa;
    stroke: #c9cccf;
    stroke-width: 1;
}

/* default key side styling, only used is draw_key_sides is set */
rect.side {
    filter: brightness(90%);
}

/* color accent for combo boxes */
rect.combo {
    fill: #cdf;
}

/* color accent for held keys */
rect.held, rect.combo.held {
    fill: #fdd;
}

/* color accent for ghost (optional) keys */
rect.ghost, rect.combo.ghost {
    stroke-dasharray: 4, 4;
    stroke-width: 2;
}

text {
    text-anchor: middle;
    dominant-baseline: middle;
}

/* styling for layer labels */
text.label {
    font-weight: bold;
    text-anchor: start;
    stroke: white;
    stroke-width: 2;
    paint-order: stroke;
}

/* styling for combo tap, and key hold/shifted label text */
text.combo, text.hold, text.shifted {
    font-size: 11px;
}

text.hold {
    text-anchor: middle;
    dominant-baseline: auto;
}

text.shifted {
    text-anchor: middle;
    dominant-baseline: hanging;
}

/* styling for hold/shifted label text in combo box */
text.combo.hold, text.combo.shifted {
    font-size: 8px;
}

/* lighter symbol for transparent keys */
text.trans {
    fill: #7b7e81;
}

/* styling for combo dendrons */
path.combo {
    stroke-width: 1;
    stroke: gray;
    fill: none;
}

/* Start Tabler Icons Cleanup */
/* cannot use height/width with glyphs */
.icon-tabler > path {
    fill: inherit;
    stroke: inherit;
}
/* hide tabler's default box */
.icon-tabler > path[stroke="none"][fill="none"] {
    visibility: collapse;
}
/* End Tabler Icons Cleanup */
</style>
<g class="layer-QWERTY">
<text x="30.0" y="28.0" class="label">QWERTY:</text>
<g class="key keypos-0">
<rect rx="6" ry="6" x="32" y="79" width="52" height="52" class="key"/>
<text x="58" y="105" class="key tap">↹</text>
</g>
<g class="key keypos-1">
<rect rx="6" ry="6" x="88" y="79" width="52" height="52" class="key"/>
<text x="114" y="105" class="key tap">Q</text>
</g>
<g class="key keypos-2">
<rect rx="6" ry="6" x="144" y="65" width="52" height="52" class="key"/>
<text x="170" y="91" class="key tap">W</text>
</g>
<g class="key keypos-3">
<rect rx="6" ry="6" x="200" y="58" width="52" height="52" class="key"/>
<text x="226" y="84" class="key tap">E</text>
</g>
<g class="key keypos-4">
<rect rx="6" ry="6" x="256" y="65" width="52" height="52" class="key"/>
<text x="282" y="91" class="key tap">R</text>
</g>
<g class="key keypos-5">
<rect rx="6" ry="6" x="312" y="72" width="52" height="52" class="key"/>
<text x="338" y="98" class="key tap">T</text>
</g>
<g class="key keypos-6">
<rect rx="6" ry="6" x="536" y="72" width="52" height="52" class="key"/>
<text x="562" y="98" class="key tap">Y</text>
</g>
<g class="key keypos-7">
<rect rx="6" ry="6" x="592" y="65" width="52" height="52" class="key"/>
<text x="618" y="91" class="key tap">U</text>
</g>
<g class="key keypos-8">
<rect rx="6" ry="6" x="648" y="58" width="52" height="52" class="key"/>
<text x="674" y="84" class="key tap">I</text>
</g>
<g class="key keypos-9">
<rect rx="6" ry="6" x="704" y="65" width="52" height="52" class="key"/>
<text x="730" y="91" class="key tap">O</text>
</g>
<g class="key keypos-10">
<rect rx="6" ry="6" x="760" y="79" width="52" height="52" class="key"/>
<text x="786" y="105" class="key tap">P</text>
</g>
<g class="key keypos-11">
<rect rx="6" ry="6" x="816" y="79" width="52" height="52" class="key"/>
<text x="842" y="105" class="key tap">⌫</text>
</g>
<g class="key keypos-12">
<rect rx="6" ry="6" x="32" y="135" width="52" height="52" class="key"/>
<text x="58" y="161" class="key tap">Ctrl</text>
</g>
<g class="key keypos-13">
<rect rx="6" ry="6" x="88" y="135" width="52" height="52" class="key"/>
<text x="114" y="161" class="key tap">A</text>
</g>
<g class="key keypos-14">
<rect rx="6" ry="6" x="144" y="121" width="52" height="52" class="key"/>
<text x="170" y="147" class="key tap">S</text>
</g>
<g class="key keypos-15">
<rect rx="6" ry="6" x="200" y="114" width="52" height="52" class="key"/>
<text x="226" y="140" class="key tap">D</text>
</g>
<g class="key keypos-16">
<rect rx="6" ry="6" x="256" y="121" width="52" height="52" class="key"/>
<text x="282" y="147" class="key tap">F</text>
</g>
<g class="key keypos-17">
<rect rx="6" ry="6" x="312" y="128" width="52" height="52" class="key"/>
<text x="338" y="154" class="key tap">G</text>
</g>
<g class="key keypos-18">
<rect rx="6" ry="6" x="536" y="128" width="52" height="52" class="key"/>
<text x="562" y="154" class="key tap">H</text>
</g>
<g class="key keypos-19">
<rect rx="6" ry="6" x="592" y="121" width="52" height="52" class="key"/>
<text x="618" y="147" class="key tap">J</text>
</g>
<g class="key keypos-20">
<rect rx="6" ry="6" x="648" y="114" width="52" height="52" class="key"/>
<text x="674" y="140" class="key tap">K</text>
</g>
<g class="key keypos-21">
<rect rx="6" ry="6" x="704" y="121" width="52" height="52" class="key"/>
<text x="730" y="147" class="key tap">L</text>
</g>
<g class="key keypos-22">
<rect rx="6" ry="6" x="760" y="135" width="52" height="52" class="key"/>
<text x="786" y="161" class="key tap">;</text>
</g>
<g class="key keypos-23">
<rect rx="6" ry="6" x="816" y="135" width="52" height="52" class="key"/>
<text x="842" y="161" class="key tap">&#x27;</text>
</g>
<g class="key keypos-24">
<rect rx="6" ry="6" x="32" y="191" width="52" height="52" class="key"/>
<text x="58" y="217" class="key tap">Shift</text>
</g>
<g class="key keypos-25">
<rect rx="6" ry="6" x="88" y="191" width="52" height="52" class="key"/>
<text x="114" y="217" class="key tap">Z</text>
</g>
<g class="key keypos-26">
<rect rx="6" ry="6" x="144" y="177" width="52" height="52" class="key"/>
<text x="170" y="203" class="key tap">X</text>
</g>
<g class="key keypos-27">
<rect rx="6" ry="6" x="200" y="170" width="52" height="52" class="key"/>
<text x="226" y="196" class="key tap">C</text>
</g>
<g class="key keypos-28">
<rect rx="6" ry="6" x="256" y="177" width="52" height="52" class="key"/>
<text x="282" y="203" class="key tap">V</text>
</g>
<g class="key keypos-29">
<rect rx="6" ry="6" x="312" y="184" width="52" height="52" class="key"/>
<text x="338" y="210" class="key tap">B</text>
</g>
<g class="key keypos-30">
<rect rx="6" ry="6" x="536" y="184" width="52" height="52" class="key"/>
<text x="562" y="210" class="key tap">N</text>
</g>
<g class="key keypos-31">
<rect rx="6" ry="6" x="592" y="177" width="52" height="52" class="key"/>
<text x="618" y="203" class="key tap">M</text>
</g>
<g class="key keypos-32">
<rect rx="6" ry="6" x="648" y="170" width="52" height="52" class="key"/>
<text x="674" y="196" class="key tap">,</text>
</g>
<g class="key keypos-33">
<rect rx="6" ry="6" x="704" y="177" width="52" height="52" class="key"/>
<text x="730" y="203" class="key tap">.</text>
</g>
<g class="key keypos-34">
<rect rx="6" ry="6" x="760" y="191" width="52" height="52" class="key"/>
<text x="786" y="217" class="key tap">/</text>
</g>
<g class="key keypos-35">
<rect rx="6" ry="6" x="816" y="191" width="52" height="52" class="key"/>
<text x="842" y="217" class="key tap">Esc</text>
</g>
<g class="key keypos-36">
<rect rx="6" ry="6" x="228" y="235" width="52" height="52" class="key"/>
<text x="254" y="261" class="key tap">Gui</text>
</g>
<g transform="rotate(15.0, 316, 269)" class="key keypos-37">
<rect rx="6" ry="6" x="290" y="243" width="52" height="52" class="key"/>
<text x="316" y="269" class="key tap">NUMBER</text>
</g>
<g transform="rotate(30.0, 381, 280)" class="key keypos-38">
<rect rx="6" ry="6" x="355" y="240" width="52" height="80" class="key"/>
<text x="381" y="280" class="key tap">␣</text>
</g>
<g transform="rotate(-30.0, 519, 280)" class="key keypos-39">
<rect rx="6" ry="6" x="493" y="240" width="52" height="80" class="key"/>
<text x="519" y="280" class="key tap">⏎</text>
</g>
<g transform="rotate(-15.0, 584, 269)" class="key keypos-40">
<rect rx="6" ry="6" x="558" y="243" width="52" height="52" class="key"/>
<text x="584" y="269" class="key tap">SYMBOL</text>
</g>
<g class="key keypos-41">
<rect rx="6" ry="6" x="620" y="235" width="52" height="52" class="key"/>
<text x="646" y="261" class="key tap">Alt</text>
</g>
</g>
<g class="layer-NUMBER">
<text x="30.0" y="358.6530669589464" class="label">NUMBER:</text>
<g class="key keypos-0">
<rect rx="6" ry="6" x="32" y="410" width="52" height="52" class="key"/>
<text x="58" y="436" class="key tap">↹</text>
</g>
<g class="key keypos-1">
<rect rx="6" ry="6" x="88" y="410" width="52" height="52" class="key"/>
<text x="114" y="436" class="key tap">1</text>
</g>
<g class="key keypos-2">
<rect rx="6" ry="6" x="144" y="396" width="52" height="52" class="key"/>
<text x="170" y="422" class="key tap">2</text>
</g>
<g class="key keypos-3">
<rect rx="6" ry="6" x="200" y="389" width="52" height="52" class="key"/>
<text x="226" y="415" class="key tap">3</text>
</g>
<g class="key keypos-4">
<rect rx="6" ry="6" x="256" y="396" width="52" height="52" class="key"/>
<text x="282" y="422" class="key tap">4</text>
</g>
<g class="key keypos-5">
<rect rx="6" ry="6" x="312" y="403" width="52" height="52" class="key"/>
<text x="338" y="429" class="key tap">5</text>
</g>
<g class="key keypos-6">
<rect rx="6" ry="6" x="536" y="403" width="52" height="52" class="key"/>
<text x="562" y="429" class="key tap">6</text>
</g>
<g class="key keypos-7">
<rect rx="6" ry="6" x="592" y="396" width="52" height="52" class="key"/>
<text x="618" y="422" class="key tap">7</text>
</g>
<g class="key keypos-8">
<rect rx="6" ry="6" x="648" y="389" width="52" height="52" class="key"/>
<text x="674" y="415" class="key tap">8</text>
</g>
<g class="key keypos-9">
<rect rx="6" ry="6" x="704" y="396" width="52" height="52" class="key"/>
<text x="730" y="422" class="key tap">9</text>
</g>
<g class="key keypos-10">
<rect rx="6" ry="6" x="760" y="410" width="52" height="52" class="key"/>
<text x="786" y="436" class="key tap">0</text>
</g>
<g class="key keypos-11">
<rect rx="6" ry="6" x="816" y="410" width="52" height="52" class="key"/>
<text x="842" y="436" class="key tap">⌫</text>
</g>
<g class="key keypos-12">
<rect rx="6" ry="6" x="32" y="466" width="52" height="52" class="key"/>
<text x="58" y="492" class="key tap">
<tspan x="58.0" dy="-0.6em">BT</tspan><tspan x="58.0" dy="1.2em">CLR</tspan>
</text>
</g>
<g class="key keypos-13">
<rect rx="6" ry="6" x="88" y="466" width="52" height="52" class="key"/>
<text x="114" y="492" class="key tap">
<tspan x="114.0" dy="-0.6em">BT</tspan><tspan x="114.0" dy="1.2em">1</tspan>
</text>
</g>
<g class="key keypos-14">
<rect rx="6" ry="6" x="144" y="452" width="52" height="52" class="key"/>
<text x="170" y="478" class="key tap">
<tspan x="170.0" dy="-0.6em">BT</tspan><tspan x="170.0" dy="1.2em">2</tspan>
</text>
</g>
<g class="key keypos-15">
<rect rx="6" ry="6" x="200" y="445" width="52" height="52" class="key"/>
<text x="226" y="471" class="key tap">
<tspan x="226.0" dy="-0.6em">BT</tspan><tspan x="226.0" dy="1.2em">3</tspan>
</text>
</g>
<g class="key keypos-16">
<rect rx="6" ry="6" x="256" y="452" width="52" height="52" class="key"/>
<text x="282" y="478" class="key tap">
<tspan x="282.0" dy="-0.6em">BT</tspan><tspan x="282.0" dy="1.2em">4</tspan>
</text>
</g>
<g class="key keypos-17">
<rect rx="6" ry="6" x="312" y="459" width="52" height="52" class="key"/>
<text x="338" y="485" class="key tap">
<tspan x="338.0" dy="-0.6em">BT</tspan><tspan x="338.0" dy="1.2em">5</tspan>
</text>
</g>
<g class="key keypos-18">
<rect rx="6" ry="6" x="536" y="459" width="52" height="52" class="key"/>
<text x="562" y="485" class="key tap">←</text>
</g>
<g class="key keypos-19">
<rect rx="6" ry="6" x="592" y="452" width="52" height="52" class="key"/>
<text x="618" y="478" class="key tap">↓</text>
</g>
<g class="key keypos-20">
<rect rx="6" ry="6" x="648" y="445" width="52" height="52" class="key"/>
<text x="674" y="471" class="key tap">↑</text>
</g>
<g class="key keypos-21">
<rect rx="6" ry="6" x="704" y="452" width="52" height="52" class="key"/>
<text x="730" y="478" class="key tap">→</text>
</g>
<g class="key trans keypos-22">
<rect rx="6" ry="6" x="760" y="466" width="52" height="52" class="key trans"/>
<text x="786" y="492" class="key trans tap">▽</text>
</g>
<g class="key trans keypos-23">
<rect rx="6" ry="6" x="816" y="466" width="52" height="52" class="key trans"/>
<text x="842" y="492" class="key trans tap">▽</text>
</g>
<g class="key keypos-24">
<rect rx="6" ry="6" x="32" y="522" width="52" height="52" class="key"/>
<text x="58" y="548" class="key tap">Shift</text>
</g>
<g class="key trans keypos-25">
<rect rx="6" ry="6" x="88" y="522" width="52" height="52" class="key trans"/>
<text x="114" y="548" class="key trans tap">▽</text>
</g>
<g class="key trans keypos-26">
<rect rx="6" ry="6" x="144" y="508" width="52" height="52" class="key trans"/>
<text x="170" y="534" class="key trans tap">▽</text>
</g>
<g class="key trans keypos-27">
<rect rx="6" ry="6" x="200" y="501" width="52" height="52" class="key trans"/>
<text x="226" y="527" class="key trans tap">▽</text>
</g>
<g class="key trans keypos-28">
<rect rx="6" ry="6" x="256" y="508" width="52" height="52" class="key trans"/>
<text x="282" y="534" class="key trans tap">▽</text>
</g>
<g class="key trans keypos-29">
<rect rx="6" ry="6" x="312" y="515" width="52" height="52" class="key trans"/>
<text x="338" y="541" class="key trans tap">▽</text>
</g>
<g class="key trans keypos-30">
<rect rx="6" ry="6" x="536" y="515" width="52" height="52" class="key trans"/>
<text x="562" y="541" class="key trans tap">▽</text>
</g>
<g class="key trans keypos-31">
<rect rx="6" ry="6" x="592" y="508" width="52" height="52" class="key trans"/>
<text x="618" y="534" class="key trans tap">▽</text>
</g>
<g class="key trans keypos-32">
<rect rx="6" ry="6" x="648" y="501" width="52" height="52" class="key trans"/>
<text x="674" y="527" class="key trans tap">▽</text>
</g>
<g class="key trans keypos-33">
<rect rx="6" ry="6" x="704" y="508" width="52" height="52" class="key trans"/>
<text x="730" y="534" class="key trans tap">▽</text>
</g>
<g class="key trans keypos-34">
<rect rx="6" ry="6" x="760" y="522" width="52" height="52" class="key trans"/>
<text x="786" y="548" class="key trans tap">▽</text>
</g>
<g class="key trans keypos-35">
<rect rx="6" ry="6" x="816" y="522" width="52" height="52" class="key trans"/>
<text x="842" y="548" class="key trans tap">▽</text>
</g>
<g class="key keypos-36">
<rect rx="6" ry="6" x="228" y="566" width="52" height="52" class="key"/>
<text x="254" y="592" class="key tap">Gui</text>
</g>
<g transform="rotate(15.0, 316, 600)" class="key held keypos-37">
<rect rx="6" ry="6" x="290" y="574" width="52" height="52" class="key held"/>
</g>
<g transform="rotate(30.0, 381, 611)" class="key keypos-38">
<rect rx="6" ry="6" x="355" y="571" width="52" height="80" class="key"/>
<text x="381" y="611" class="key tap">␣</text>
</g>
<g transform="rotate(-30.0, 519, 611)" class="key keypos-39">
<rect rx="6" ry="6" x="493" y="571" width="52" height="80" class="key"/>
<text x="519" y="611" class="key tap">⏎</text>
</g>
<g transform="rotate(-15.0, 584, 600)" class="key trans keypos-40">
<rect rx="6" ry="6" x="558" y="574" width="52" height="52" class="key trans"/>
<text x="584" y="600" class="key trans tap">▽</text>
</g>
<g class="key keypos-41">
<rect rx="6" ry="6" x="620" y="566" width="52" height="52" class="key"/>
<text x="646" y="592" class="key tap">Alt</text>
</g>
</g>
<g class="layer-SYMBOL">
<text x="30.0" y="689.3061339178928" class="label">SYMBOL:</text>
<g class="key keypos-0">
<rect rx="6" ry="6" x="32" y="740" width="52" height="52" class="key"/>
<text x="58" y="766" class="key tap">↹</text>
</g>
<g class="key keypos-1">
<rect rx="6" ry="6" x="88" y="740" width="52" height="52" class="key"/>
<text x="114" y="766" class="key tap">!</text>
</g>
<g class="key keypos-2">
<rect rx="6" ry="6" x="144" y="726" width="52" height="52" class="key"/>
<text x="170" y="752" class="key tap">@</text>
</g>
<g class="key keypos-3">
<rect rx="6" ry="6" x="200" y="719" width="52" height="52" class="key"/>
<text x="226" y="745" class="key tap">#</text>
</g>
<g class="key keypos-4">
<rect rx="6" ry="6" x="256" y="726" width="52" height="52" class="key"/>
<text x="282" y="752" class="key tap">$</text>
</g>
<g class="key keypos-5">
<rect rx="6" ry="6" x="312" y="733" width="52" height="52" class="key"/>
<text x="338" y="759" class="key tap">%</text>
</g>
<g class="key keypos-6">
<rect rx="6" ry="6" x="536" y="733" width="52" height="52" class="key"/>
<text x="562" y="759" class="key tap">^</text>
</g>
<g class="key keypos-7">
<rect rx="6" ry="6" x="592" y="726" width="52" height="52" class="key"/>
<text x="618" y="752" class="key tap">&amp;</text>
</g>
<g class="key keypos-8">
<rect rx="6" ry="6" x="648" y="719" width="52" height="52" class="key"/>
<text x="674" y="745" class="key tap">*</text>
</g>
<g class="key keypos-9">
<rect rx="6" ry="6" x="704" y="726" width="52" height="52" class="key"/>
<text x="730" y="752" class="key tap">(</text>
</g>
<g class="key keypos-10">
<rect rx="6" ry="6" x="760" y="740" width="52" height="52" class="key"/>
<text x="786" y="766" class="key tap">)</text>
</g>
<g class="key keypos-11">
<rect rx="6" ry="6" x="816" y="740" width="52" height="52" class="key"/>
<text x="842" y="766" class="key tap">⌫</text>
</g>
<g class="key keypos-12">
<rect rx="6" ry="6" x="32" y="796" width="52" height="52" class="key"/>
<text x="58" y="822" class="key tap">Ctrl</text>
</g>
<g class="key trans keypos-13">
<rect rx="6" ry="6" x="88" y="796" width="52" height="52" class="key trans"/>
<text x="114" y="822" class="key trans tap">▽</text>
</g>
<g class="key trans keypos-14">
<rect rx="6" ry="6" x="144" y="782" width="52" height="52" class="key trans"/>
<text x="170" y="808" class="key trans tap">▽</text>
</g>
<g class="key trans keypos-15">
<rect rx="6" ry="6" x="200" y="775" width="52" height="52" class="key trans"/>
<text x="226" y="801" class="key trans tap">▽</text>
</g>
<g class="key trans keypos-16">
<rect rx="6" ry="6" x="256" y="782" width="52" height="52" class="key trans"/>
<text x="282" y="808" class="key trans tap">▽</text>
</g>
<g class="key trans keypos-17">
<rect rx="6" ry="6" x="312" y="789" width="52" height="52" class="key trans"/>
<text x="338" y="815" class="key trans tap">▽</text>
</g>
<g class="key keypos-18">
<rect rx="6" ry="6" x="536" y="789" width="52" height="52" class="key"/>
<text x="562" y="815" class="key tap">-</text>
</g>
<g class="key keypos-19">
<rect rx="6" ry="6" x="592" y="782" width="52" height="52" class="key"/>
<text x="618" y="808" class="key tap">=</text>
</g>
<g class="key keypos-20">
<rect rx="6" ry="6" x="648" y="775" width="52" height="52" class="key"/>
<text x="674" y="801" class="key tap">[</text>
</g>
<g class="key keypos-21">
<rect rx="6" ry="6" x="704" y="782" width="52" height="52" class="key"/>
<text x="730" y="808" class="key tap">]</text>
</g>
<g class="key keypos-22">
<rect rx="6" ry="6" x="760" y="796" width="52" height="52" class="key"/>
<text x="786" y="822" class="key tap">\</text>
</g>
<g class="key keypos-23">
<rect rx="6" ry="6" x="816" y="796" width="52" height="52" class="key"/>
<text x="842" y="822" class="key tap">`</text>
</g>
<g class="key keypos-24">
<rect rx="6" ry="6" x="32" y="852" width="52" height="52" class="key"/>
<text x="58" y="878" class="key tap">Shift</text>
</g>
<g class="key trans keypos-25">
<rect rx="6" ry="6" x="88" y="852" width="52" height="52" class="key trans"/>
<text x="114" y="878" class="key trans tap">▽</text>
</g>
<g class="key trans keypos-26">
<rect rx="6" ry="6" x="144" y="838" width="52" height="52" class="key trans"/>
<text x="170" y="864" class="key trans tap">▽</text>
</g>
<g class="key trans keypos-27">
<rect rx="6" ry="6" x="200" y="831" width="52" height="52" class="key trans"/>
<text x="226" y="857" class="key trans tap">▽</text>
</g>
<g class="key trans keypos-28">
<rect rx="6" ry="6" x="256" y="838" width="52" height="52" class="key trans"/>
<text x="282" y="864" class="key trans tap">▽</text>
</g>
<g class="key trans keypos-29">
<rect rx="6" ry="6" x="312" y="845" width="52" height="52" class="key trans"/>
<text x="338" y="871" class="key trans tap">▽</text>
</g>
<g class="key keypos-30">
<rect rx="6" ry="6" x="536" y="845" width="52" height="52" class="key"/>
<text x="562" y="871" class="key tap">_</text>
</g>
<g class="key keypos-31">
<rect rx="6" ry="6" x="592" y="838" width="52" height="52" class="key"/>
<text x="618" y="864" class="key tap">+</text>
</g>
<g class="key keypos-32">
<rect rx="6" ry="6" x="648" y="831" width="52" height="52" class="key"/>
<text x="674" y="857" class="key tap">{</text>
</g>
<g class="key keypos-33">
<rect rx="6" ry="6" x="704" y="838" width="52" height="52" class="key"/>
<text x="730" y="864" class="key tap">}</text>
</g>
<g class="key keypos-34">
<rect rx="6" ry="6" x="760" y="852" width="52" height="52" class="key"/>
<text x="786" y="878" class="key tap">|</text>
</g>
<g class="key keypos-35">
<rect rx="6" ry="6" x="816" y="852" width="52" height="52" class="key"/>
<text x="842" y="878" class="key tap">~</text>
</g>
<g class="key keypos-36">
<rect rx="6" ry="6" x="228" y="896" width="52" height="52" class="key"/>
<text x="254" y="922" class="key tap">Gui</text>
</g>
<g transform="rotate(15.0, 316, 930)" class="key trans keypos-37">
<rect rx="6" ry="6" x="290" y="904" width="52" height="52" class="key trans"/>
<text x="316" y="930" class="key trans tap">▽</text>
</g>
<g transform="rotate(30.0, 381, 942)" class="key keypos-38">
<rect rx="6" ry="6" x="355" y="902" width="52" height="80" class="key"/>
<text x="381" y="942" class="key tap">␣</text>
</g>
<g transform="rotate(-30.0, 519, 942)" class="key keypos-39">
<rect rx="6" ry="6" x="493" y="902" width="52" height="80" class="key"/>
<text x="519" y="942" class="key tap">⏎</text>
</g>
<g transform="rotate(-15.0, 584, 930)" class="key held keypos-40">
<rect rx="6" ry="6" x="558" y="904" width="52" height="52" class="key held"/>
</g>
<g class="key keypos-41">
<rect rx="6" ry="6" x="620" y="896" width="52" height="52" class="key"/>
<text x="646" y="922" class="key tap">Alt</text>
</g>
</g>
</svg>
